# Blender v2.92.0 OBJ File: 'BOLEN.blend'
# www.blender.org
mtllib BOLEN.mtl
o Cube
v 0.294559 0.239565 -0.702481
v 0.294559 0.063128 -0.702481
v 0.294559 0.239565 0.647369
v 0.294559 0.063128 0.647369
v -0.294559 0.239565 -0.702481
v -0.294559 0.063128 -0.702481
v -0.294559 0.239565 0.647369
v -0.294559 0.063128 0.647369
v 0.257069 0.239565 -0.616580
v 0.263948 0.072295 -0.632341
v 0.257069 0.239565 0.561468
v 0.263948 0.072295 0.577229
v -0.257069 0.239565 -0.616580
v -0.263948 0.072295 -0.632341
v -0.257069 0.239565 0.561468
v -0.263948 0.072295 0.577229
vt 0.375000 0.750000
vt 0.625000 0.750000
vt 0.625000 1.000000
vt 0.375000 1.000000
vt 0.375000 0.000000
vt 0.625000 0.000000
vt 0.625000 0.250000
vt 0.375000 0.250000
vt 0.125000 0.500000
vt 0.375000 0.500000
vt 0.125000 0.750000
vt 0.625000 0.500000
vt 0.375000 0.750000
vt 0.375000 1.000000
vt 0.625000 1.000000
vt 0.625000 0.750000
vt 0.375000 0.000000
vt 0.375000 0.250000
vt 0.625000 0.250000
vt 0.625000 0.000000
vt 0.125000 0.500000
vt 0.125000 0.750000
vt 0.375000 0.500000
vt 0.625000 0.500000
vn 0.0000 0.0000 1.0000
vn -1.0000 0.0000 0.0000
vn 0.0000 -1.0000 0.0000
vn 1.0000 0.0000 0.0000
vn 0.0000 0.0000 -1.0000
vn 0.0000 -0.0938 -0.9956
vn 0.9992 -0.0411 0.0000
vn 0.0000 1.0000 0.0000
vn -0.9992 -0.0411 0.0000
vn 0.0000 -0.0938 0.9956
usemtl Material
s off
f 4/1/1 3/2/1 7/3/1 8/4/1
f 8/5/2 7/6/2 5/7/2 6/8/2
f 6/9/3 2/10/3 4/1/3 8/11/3
f 2/10/4 1/12/4 3/2/4 4/1/4
f 6/8/5 5/7/5 1/12/5 2/10/5
f 12/13/6 16/14/6 15/15/6 11/16/6
f 16/17/7 14/18/7 13/19/7 15/20/7
f 14/21/8 16/22/8 12/13/8 10/23/8
f 10/23/9 12/13/9 11/16/9 9/24/9
f 14/18/10 10/23/10 9/24/10 13/19/10
f 7/3/8 3/2/8 11/16/8 15/15/8
f 3/2/8 1/12/8 9/24/8 11/16/8
f 5/7/8 7/6/8 15/20/8 13/19/8
f 1/12/8 5/7/8 13/19/8 9/24/8
o Cube.001
v 0.008335 0.063859 0.449132
v 0.008335 0.256734 0.449132
v 0.008335 0.063859 0.218471
v 0.008335 0.256734 0.218471
v 0.247074 0.063859 0.449132
v 0.247074 0.256734 0.449132
v 0.247074 0.063859 0.218471
v 0.247074 0.256734 0.218471
vt 0.375000 0.000000
vt 0.625000 0.000000
vt 0.625000 0.250000
vt 0.375000 0.250000
vt 0.625000 0.500000
vt 0.375000 0.500000
vt 0.625000 0.750000
vt 0.375000 0.750000
vt 0.625000 1.000000
vt 0.375000 1.000000
vt 0.125000 0.500000
vt 0.125000 0.750000
vt 0.875000 0.500000
vt 0.875000 0.750000
vn -0.5773 -0.5773 0.5773
vn -0.5773 0.5773 0.5773
vn -0.5773 0.5773 -0.5773
vn -0.5773 -0.5773 -0.5773
vn 0.5773 0.5773 -0.5773
vn 0.5773 -0.5773 -0.5773
vn 0.5773 0.5773 0.5773
vn 0.5773 -0.5773 0.5773
usemtl Material.008
s 1
f 17/25/11 18/26/12 20/27/13 19/28/14
f 19/28/14 20/27/13 24/29/15 23/30/16
f 23/30/16 24/29/15 22/31/17 21/32/18
f 21/32/18 22/31/17 18/33/12 17/34/11
f 19/35/14 23/30/16 21/32/18 17/36/11
f 24/29/15 20/37/13 18/38/12 22/31/17
o Cube.002
v -0.245304 0.067684 0.447594
v -0.245304 0.260559 0.447594
v -0.245304 0.067684 0.216933
v -0.245304 0.260559 0.216933
v -0.006565 0.067684 0.447594
v -0.006565 0.260559 0.447594
v -0.006565 0.067684 0.216933
v -0.006565 0.260559 0.216933
vt 0.375000 0.000000
vt 0.625000 0.000000
vt 0.625000 0.250000
vt 0.375000 0.250000
vt 0.625000 0.500000
vt 0.375000 0.500000
vt 0.625000 0.750000
vt 0.375000 0.750000
vt 0.625000 1.000000
vt 0.375000 1.000000
vt 0.125000 0.500000
vt 0.125000 0.750000
vt 0.875000 0.500000
vt 0.875000 0.750000
vn -0.5773 -0.5773 0.5773
vn -0.5773 0.5773 0.5773
vn -0.5773 0.5773 -0.5773
vn -0.5773 -0.5773 -0.5773
vn 0.5773 0.5773 -0.5773
vn 0.5773 -0.5773 -0.5773
vn 0.5773 0.5773 0.5773
vn 0.5773 -0.5773 0.5773
usemtl Material.004
s 1
f 25/39/19 26/40/20 28/41/21 27/42/22
f 27/42/22 28/41/21 32/43/23 31/44/24
f 31/44/24 32/43/23 30/45/25 29/46/26
f 29/46/26 30/45/25 26/47/20 25/48/19
f 27/49/22 31/44/24 29/46/26 25/50/19
f 32/43/23 28/51/21 26/52/20 30/45/25
o Cube.003
v 0.004084 0.064091 0.179551
v 0.004084 0.256966 0.179551
v 0.004084 0.064091 -0.051110
v 0.004084 0.256966 -0.051110
v 0.242823 0.064091 0.179551
v 0.242823 0.256966 0.179551
v 0.242823 0.064091 -0.051110
v 0.242823 0.256966 -0.051110
vt 0.375000 0.000000
vt 0.625000 0.000000
vt 0.625000 0.250000
vt 0.375000 0.250000
vt 0.625000 0.500000
vt 0.375000 0.500000
vt 0.625000 0.750000
vt 0.375000 0.750000
vt 0.625000 1.000000
vt 0.375000 1.000000
vt 0.125000 0.500000
vt 0.125000 0.750000
vt 0.875000 0.500000
vt 0.875000 0.750000
vn -0.5773 -0.5773 0.5773
vn -0.5773 0.5773 0.5773
vn -0.5773 0.5773 -0.5773
vn -0.5773 -0.5773 -0.5773
vn 0.5773 0.5773 -0.5773
vn 0.5773 -0.5773 -0.5773
vn 0.5773 0.5773 0.5773
vn 0.5773 -0.5773 0.5773
usemtl Material.007
s 1
f 33/53/27 34/54/28 36/55/29 35/56/30
f 35/56/30 36/55/29 40/57/31 39/58/32
f 39/58/32 40/57/31 38/59/33 37/60/34
f 37/60/34 38/59/33 34/61/28 33/62/27
f 35/63/30 39/58/32 37/60/34 33/64/27
f 40/57/31 36/65/29 34/66/28 38/59/33
o Cube.004
v -0.249556 0.067916 0.178012
v -0.249556 0.260790 0.178012
v -0.249556 0.067916 -0.052648
v -0.249556 0.260790 -0.052648
v -0.010817 0.067916 0.178012
v -0.010817 0.260790 0.178012
v -0.010817 0.067916 -0.052648
v -0.010817 0.260790 -0.052648
vt 0.375000 0.000000
vt 0.625000 0.000000
vt 0.625000 0.250000
vt 0.375000 0.250000
vt 0.625000 0.500000
vt 0.375000 0.500000
vt 0.625000 0.750000
vt 0.375000 0.750000
vt 0.625000 1.000000
vt 0.375000 1.000000
vt 0.125000 0.500000
vt 0.125000 0.750000
vt 0.875000 0.500000
vt 0.875000 0.750000
vn -0.5773 -0.5773 0.5773
vn -0.5773 0.5773 0.5773
vn -0.5773 0.5773 -0.5773
vn -0.5773 -0.5773 -0.5773
vn 0.5773 0.5773 -0.5773
vn 0.5773 -0.5773 -0.5773
vn 0.5773 0.5773 0.5773
vn 0.5773 -0.5773 0.5773
usemtl Material.003
s 1
f 41/67/35 42/68/36 44/69/37 43/70/38
f 43/70/38 44/69/37 48/71/39 47/72/40
f 47/72/40 48/71/39 46/73/41 45/74/42
f 45/74/42 46/73/41 42/75/36 41/76/35
f 43/77/38 47/72/40 45/74/42 41/78/35
f 48/71/39 44/79/37 42/80/36 46/73/41
o Cube.005
v 0.007662 0.064313 -0.084212
v 0.007662 0.257187 -0.084212
v 0.007662 0.064313 -0.314872
v 0.007662 0.257187 -0.314872
v 0.246401 0.064313 -0.084212
v 0.246401 0.257187 -0.084212
v 0.246401 0.064313 -0.314872
v 0.246401 0.257187 -0.314872
vt 0.375000 0.000000
vt 0.625000 0.000000
vt 0.625000 0.250000
vt 0.375000 0.250000
vt 0.625000 0.500000
vt 0.375000 0.500000
vt 0.625000 0.750000
vt 0.375000 0.750000
vt 0.625000 1.000000
vt 0.375000 1.000000
vt 0.125000 0.500000
vt 0.125000 0.750000
vt 0.875000 0.500000
vt 0.875000 0.750000
vn -0.5773 -0.5773 0.5773
vn -0.5773 0.5773 0.5773
vn -0.5773 0.5773 -0.5773
vn -0.5773 -0.5773 -0.5773
vn 0.5773 0.5773 -0.5773
vn 0.5773 -0.5773 -0.5773
vn 0.5773 0.5773 0.5773
vn 0.5773 -0.5773 0.5773
usemtl Material.006
s 1
f 49/81/43 50/82/44 52/83/45 51/84/46
f 51/84/46 52/83/45 56/85/47 55/86/48
f 55/86/48 56/85/47 54/87/49 53/88/50
f 53/88/50 54/87/49 50/89/44 49/90/43
f 51/91/46 55/86/48 53/88/50 49/92/43
f 56/85/47 52/93/45 50/94/44 54/87/49
o Cube.006
v -0.245978 0.068137 -0.085750
v -0.245978 0.261012 -0.085750
v -0.245978 0.068137 -0.316411
v -0.245978 0.261012 -0.316411
v -0.007239 0.068137 -0.085750
v -0.007239 0.261012 -0.085750
v -0.007239 0.068137 -0.316411
v -0.007239 0.261012 -0.316411
vt 0.375000 0.000000
vt 0.625000 0.000000
vt 0.625000 0.250000
vt 0.375000 0.250000
vt 0.625000 0.500000
vt 0.375000 0.500000
vt 0.625000 0.750000
vt 0.375000 0.750000
vt 0.625000 1.000000
vt 0.375000 1.000000
vt 0.125000 0.500000
vt 0.125000 0.750000
vt 0.875000 0.500000
vt 0.875000 0.750000
vn -0.5773 -0.5773 0.5773
vn -0.5773 0.5773 0.5773
vn -0.5773 0.5773 -0.5773
vn -0.5773 -0.5773 -0.5773
vn 0.5773 0.5773 -0.5773
vn 0.5773 -0.5773 -0.5773
vn 0.5773 0.5773 0.5773
vn 0.5773 -0.5773 0.5773
usemtl Material.002
s 1
f 57/95/51 58/96/52 60/97/53 59/98/54
f 59/98/54 60/97/53 64/99/55 63/100/56
f 63/100/56 64/99/55 62/101/57 61/102/58
f 61/102/58 62/101/57 58/103/52 57/104/51
f 59/105/54 63/100/56 61/102/58 57/106/51
f 64/99/55 60/107/53 58/108/52 62/101/57
o Cube.007
v 0.011070 0.072850 -0.355833
v 0.011070 0.265725 -0.355833
v 0.007612 0.072850 -0.586468
v 0.007612 0.265725 -0.586468
v 0.249783 0.072850 -0.359413
v 0.249783 0.265725 -0.359413
v 0.246324 0.072850 -0.590048
v 0.246324 0.265725 -0.590048
vt 0.375000 0.000000
vt 0.625000 0.000000
vt 0.625000 0.250000
vt 0.375000 0.250000
vt 0.625000 0.500000
vt 0.375000 0.500000
vt 0.625000 0.750000
vt 0.375000 0.750000
vt 0.625000 1.000000
vt 0.375000 1.000000
vt 0.125000 0.500000
vt 0.125000 0.750000
vt 0.875000 0.500000
vt 0.875000 0.750000
vn -0.5686 -0.5773 0.5859
vn -0.5686 0.5773 0.5859
vn -0.5859 0.5773 -0.5686
vn -0.5859 -0.5773 -0.5686
vn 0.5686 0.5773 -0.5859
vn 0.5686 -0.5773 -0.5859
vn 0.5859 0.5773 0.5686
vn 0.5859 -0.5773 0.5686
usemtl Material.005
s 1
f 65/109/59 66/110/60 68/111/61 67/112/62
f 67/112/62 68/111/61 72/113/63 71/114/64
f 71/114/64 72/113/63 70/115/65 69/116/66
f 69/116/66 70/115/65 66/117/60 65/118/59
f 67/119/62 71/114/64 69/116/66 65/120/59
f 72/113/63 68/121/61 66/122/60 70/115/65
o Cube.008
v -0.242564 0.076675 -0.353569
v -0.242564 0.269549 -0.353569
v -0.246022 0.076675 -0.584204
v -0.246022 0.269549 -0.584204
v -0.003852 0.076675 -0.357148
v -0.003852 0.269549 -0.357148
v -0.007310 0.076675 -0.587783
v -0.007310 0.269549 -0.587783
vt 0.375000 0.000000
vt 0.625000 0.000000
vt 0.625000 0.250000
vt 0.375000 0.250000
vt 0.625000 0.500000
vt 0.375000 0.500000
vt 0.625000 0.750000
vt 0.375000 0.750000
vt 0.625000 1.000000
vt 0.375000 1.000000
vt 0.125000 0.500000
vt 0.125000 0.750000
vt 0.875000 0.500000
vt 0.875000 0.750000
vn -0.5686 -0.5773 0.5859
vn -0.5686 0.5773 0.5859
vn -0.5859 0.5773 -0.5686
vn -0.5859 -0.5773 -0.5686
vn 0.5686 0.5773 -0.5859
vn 0.5686 -0.5773 -0.5859
vn 0.5859 0.5773 0.5686
vn 0.5859 -0.5773 0.5686
usemtl Material.001
s 1
f 73/123/67 74/124/68 76/125/69 75/126/70
f 75/126/70 76/125/69 80/127/71 79/128/72
f 79/128/72 80/127/71 78/129/73 77/130/74
f 77/130/74 78/129/73 74/131/68 73/132/67
f 75/133/70 79/128/72 77/130/74 73/134/67
f 80/127/71 76/135/69 74/136/68 78/129/73
